<?xml version="1.0" encoding="UTF-8" standalone="no"?>
<svg 
  version="1.1" 
  xmlns="http://www.w3.org/2000/svg" 
  xmlns:xlink="http://www.w3.org/1999/xlink" 
  xmlns:svg="http://www.w3.org/2000/svg"
  xmlns:rdf="http://www.w3.org/1999/02/22-rdf-syntax-ns#"
  xmlns:cc="http://creativecommons.org/ns#"
  xmlns:dc="http://purl.org/dc/elements/1.1/"
  viewBox="0 0 768 768"
  width="768"
  height="768"
>
<style>svg {background-color: white; }</style>"
<metadata id="metadata1">
Created by https://svgstud.io and licensed under CC-BY-SA 4.0 license. Please attribute https://svgstud.io
</metadata>
<metadata id="prompt">
a simple brain icon
</metadata>
<metadata id="version">
7
</metadata>
<metadata id="metadata2">
<rdf:RDF>
<cc:Work
    rdf:about="">
    <cc:license
    rdf:resource="http://creativecommons.org/licenses/by-sa/4.0/" />
    <dc:creator>
        <cc:Agent>
            <dc:title>https://svgstud.io</dc:title>
        </cc:Agent>
    </dc:creator>
</cc:Work>
<cc:License
    rdf:about="http://creativecommons.org/licenses/by-sa/4.0/">
    <cc:permits
    rdf:resource="http://creativecommons.org/ns#Reproduction" />
    <cc:permits
    rdf:resource="http://creativecommons.org/ns#Distribution" />
    <cc:requires
    rdf:resource="http://creativecommons.org/ns#Notice" />
    <cc:requires
    rdf:resource="http://creativecommons.org/ns#Attribution" />
    <cc:permits
    rdf:resource="http://creativecommons.org/ns#DerivativeWorks" />
    <cc:requires
    rdf:resource="http://creativecommons.org/ns#ShareAlike" />
</cc:License>
</rdf:RDF>
</metadata>
<metadata id="uid">
61152aaf7c9cc81cc40778b12fb9c47f7089272a8f29b32b3f82e01215da9275
</metadata>
<path stroke="none" fill="black" fill-rule="evenodd" d="M390.57,623.89C387.78,623.83 383.63,623.41 381.34,622.96C379.06,622.51 375.46,621.25 373.34,620.16C371.23,619.07 368.13,616.67 366.45,614.84C364.77,613.00 362.86,610.78 362.19,609.89C361.53,609.01 360.57,606.08 360.05,603.39C359.44,600.26 359.51,583.69 360.24,557.27C361.29,519.24 361.25,515.63 359.67,510.63C358.73,507.64 354.56,499.87 350.41,493.35C346.25,486.83 340.68,478.66 338.04,475.20C335.39,471.73 328.91,464.25 323.65,458.58C318.38,452.91 312.82,447.79 311.29,447.21C309.75,446.62 303.60,445.19 297.60,444.03C291.61,442.87 284.32,440.79 281.41,439.41C278.50,438.04 273.95,434.96 271.31,432.58C268.66,430.19 264.70,425.72 262.50,422.64C259.52,418.47 257.74,416.92 255.50,416.55C253.85,416.29 245.77,415.59 237.54,415.01C229.31,414.43 218.14,413.05 212.73,411.94C207.31,410.84 199.87,408.81 196.19,407.42C192.51,406.04 186.57,403.31 183.00,401.36C179.43,399.41 173.33,395.44 169.46,392.54C165.59,389.64 159.33,384.17 155.54,380.38C151.76,376.60 146.96,370.86 144.87,367.64C142.78,364.42 139.68,358.20 137.98,353.80C136.26,349.32 134.45,342.12 133.87,337.39C133.06,330.72 133.17,326.76 134.39,318.44C135.25,312.65 137.56,303.10 139.52,297.21C141.49,291.32 145.32,282.00 148.03,276.50C150.75,271.00 155.80,262.00 159.26,256.50C162.72,251.00 168.90,242.00 172.98,236.50C177.07,231.00 185.24,221.07 191.14,214.42C197.03,207.78 206.28,198.30 211.68,193.36C217.08,188.41 225.10,181.41 229.50,177.80C233.90,174.20 242.45,168.01 248.50,164.06C254.55,160.11 266.70,153.34 275.50,149.01C284.30,144.68 295.90,139.52 301.28,137.54C306.66,135.56 315.21,132.83 320.28,131.46C325.35,130.10 334.51,128.10 340.63,127.03C346.75,125.96 357.78,124.57 365.13,123.94C372.69,123.29 383.28,123.09 389.50,123.47C395.55,123.84 404.97,124.79 410.43,125.60C415.89,126.40 424.73,128.16 430.07,129.52C435.41,130.87 443.77,133.36 448.64,135.05C453.51,136.74 464.30,141.46 472.61,145.53C480.91,149.61 493.74,156.98 501.11,161.90C508.47,166.83 520.35,176.00 527.50,182.28C534.65,188.56 543.44,197.03 547.04,201.10C550.63,205.17 556.29,211.88 559.62,216.00C562.94,220.12 568.16,227.10 571.22,231.50C574.28,235.90 579.72,244.75 583.30,251.16C586.88,257.57 591.68,266.96 593.96,272.03C596.24,277.10 599.24,284.23 600.63,287.87C602.01,291.52 604.65,300.35 606.48,307.50C608.32,314.65 610.64,325.45 611.63,331.50C612.92,339.36 613.44,348.06 613.46,362.00C613.48,374.33 613.02,383.49 612.22,386.90C611.52,389.88 609.63,395.05 608.01,398.40C606.39,401.76 602.78,407.14 599.99,410.38C597.20,413.61 592.92,420.37 590.47,425.40C588.02,430.43 583.09,438.21 579.51,442.69C575.93,447.16 569.97,453.62 566.25,457.03C562.54,460.45 555.67,465.83 550.99,468.99C546.31,472.15 539.78,476.09 536.49,477.75C533.20,479.41 526.65,482.13 521.94,483.79C517.24,485.45 509.14,487.73 503.94,488.85C498.75,489.97 489.84,491.36 484.14,491.94C478.45,492.52 470.52,493.00 466.52,493.00C462.52,493.00 457.84,493.28 456.12,493.63C453.74,494.10 449.89,497.60 440.06,508.24C427.14,522.22 427.14,522.22 426.58,528.36C426.28,531.74 425.64,550.25 425.17,569.50C424.53,595.47 423.95,605.27 422.94,607.50C422.18,609.15 420.54,611.89 419.29,613.59C418.03,615.29 414.87,617.84 412.25,619.25C409.64,620.67 404.83,622.32 401.57,622.91C398.30,623.51 393.35,623.95 390.57,623.89zM389.82,608.99C393.29,608.99 396.94,608.57 397.93,608.04C399.61,607.14 399.78,603.23 400.61,546.29C401.10,512.86 401.45,481.81 401.38,477.30C401.27,469.49 401.08,468.85 397.46,463.80C395.37,460.89 389.86,454.08 385.21,448.67C380.56,443.27 376.08,438.59 375.26,438.27C374.44,437.95 366.05,438.72 356.63,439.97C347.21,441.22 338.25,442.53 336.72,442.88C333.94,443.51 333.94,443.51 339.72,448.34C342.90,450.99 348.13,456.16 351.35,459.83C354.57,463.50 359.34,469.65 361.95,473.50C364.56,477.35 368.52,483.88 370.74,488.00C372.96,492.12 375.34,497.27 376.03,499.42C377.01,502.53 377.03,510.43 376.11,537.42C375.47,556.17 374.85,578.10 374.72,586.17C374.52,599.70 374.66,601.07 376.60,603.67C377.75,605.23 379.77,607.06 381.10,607.74C382.42,608.41 386.34,608.98 389.82,608.99zM430.63,485.90C435.51,481.17 440.62,476.70 442.00,475.96C443.63,475.09 452.25,474.19 466.66,473.39C478.85,472.71 492.74,471.42 497.53,470.52C502.33,469.62 509.90,467.74 514.37,466.33C518.84,464.92 525.65,462.19 529.50,460.27C533.35,458.34 539.42,454.83 543.00,452.46C546.58,450.08 551.99,445.75 555.03,442.82C558.06,439.89 561.62,435.99 562.93,434.13C565.07,431.10 565.11,430.87 563.31,431.83C562.22,432.42 557.75,435.11 553.38,437.82C549.01,440.53 542.75,444.10 539.47,445.76C536.19,447.41 529.89,449.90 525.47,451.30C521.05,452.69 514.00,454.54 509.80,455.41C505.60,456.27 498.86,457.48 494.83,458.08C490.80,458.67 473.65,459.49 456.73,459.89C431.98,460.48 425.68,460.90 424.54,462.06C423.53,463.10 422.95,467.80 422.44,479.00C421.75,494.50 421.75,494.50 430.63,485.90zM412.04,445.00C412.46,445.00 418.81,444.34 426.15,443.53C433.49,442.73 449.40,441.57 461.50,440.97C473.60,440.36 488.53,439.01 494.68,437.96C500.83,436.92 510.73,434.46 516.68,432.50C522.63,430.54 529.52,427.81 532.00,426.42C536.50,423.91 536.50,423.91 526.00,424.49C520.23,424.81 499.75,425.49 480.50,426.00C461.25,426.51 439.88,427.61 433.00,428.45C426.12,429.29 415.44,430.51 409.25,431.17C403.06,431.83 398.00,432.64 398.00,432.98C398.00,433.32 399.69,435.19 401.75,437.13C403.81,439.08 406.80,441.64 408.38,442.83C409.97,444.03 411.62,445.00 412.04,445.00zM323.50,417.53C334.14,417.30 346.70,416.16 361.00,414.15C372.82,412.48 387.90,410.63 394.50,410.03C401.10,409.43 416.15,407.83 427.95,406.47C439.75,405.11 452.54,404.00 456.36,404.00C463.03,404.00 463.24,404.07 461.65,405.83C460.74,406.83 460.00,407.96 460.00,408.33C460.00,408.70 466.19,409.00 473.75,409.00C481.31,409.00 493.57,408.53 501.00,407.97C508.43,407.40 518.90,406.04 524.27,404.94C529.65,403.85 537.73,401.79 542.22,400.37C547.76,398.62 551.26,396.86 553.08,394.91C554.83,393.04 556.53,389.21 557.93,384.02C559.12,379.61 560.37,372.10 560.71,367.32C561.32,358.63 561.32,358.63 555.41,363.15C552.16,365.63 545.08,370.66 539.68,374.33C534.29,378.00 529.19,381.00 528.37,381.00C527.27,381.00 527.05,380.39 527.55,378.75C527.93,377.51 529.77,373.94 531.65,370.82C533.53,367.69 538.26,361.71 542.16,357.53C546.07,353.35 549.04,349.71 548.78,349.44C548.51,349.17 545.19,350.35 541.39,352.06C537.60,353.77 530.45,356.22 525.50,357.51C520.55,358.81 512.90,360.56 508.50,361.41C504.10,362.26 493.20,363.88 484.28,365.00C475.36,366.12 467.03,367.45 465.78,367.96C463.50,368.87 463.50,368.87 465.69,368.94C466.90,368.97 468.16,369.46 468.51,370.01C468.85,370.57 468.05,373.40 466.72,376.31C465.39,379.21 462.77,383.33 460.90,385.46C459.03,387.59 455.58,390.18 453.24,391.22C450.89,392.26 448.50,392.81 447.91,392.44C447.30,392.07 447.12,390.64 447.48,389.14C447.83,387.69 449.90,383.55 452.06,379.94C454.23,376.33 456.91,372.40 458.02,371.21C460.04,369.04 460.04,369.04 432.77,369.53C417.77,369.80 395.82,370.23 384.00,370.49C372.18,370.75 356.88,371.67 350.00,372.52C343.12,373.37 333.54,375.00 328.69,376.13C323.84,377.27 316.72,379.78 312.86,381.71C308.98,383.65 302.97,387.90 299.44,391.21C295.91,394.50 291.23,399.91 289.02,403.21C286.81,406.52 285.00,410.27 285.00,411.54C285.00,413.52 285.75,414.02 290.25,414.98C293.14,415.60 298.20,416.51 301.50,417.00C304.80,417.49 314.70,417.73 323.50,417.53zM384.48,403.44C381.72,403.82 379.15,403.81 378.77,403.44C378.39,403.06 378.69,401.57 379.44,400.12C380.19,398.68 383.00,395.21 385.68,392.42C388.36,389.63 392.69,386.10 395.29,384.57C397.95,383.01 400.73,382.06 401.62,382.41C402.87,382.89 403.07,383.82 402.53,386.71C402.15,388.73 400.77,392.49 399.47,395.07C397.68,398.59 396.16,400.12 393.30,401.25C391.21,402.08 387.24,403.07 384.48,403.44zM586.41,392.04C587.88,390.68 590.53,386.63 592.29,383.05C595.50,376.53 595.50,376.50 595.44,361.01C595.41,352.48 594.79,341.24 594.08,336.04C593.36,330.83 591.27,320.60 589.43,313.29C587.59,305.98 583.56,293.59 580.48,285.75C577.39,277.91 572.29,266.55 569.14,260.50C565.99,254.45 560.43,245.00 556.78,239.50C553.14,234.00 546.37,225.00 541.74,219.50C537.10,214.00 528.79,205.17 523.26,199.87C517.73,194.58 509.67,187.56 505.35,184.27C501.03,180.98 492.55,175.03 486.50,171.04C480.45,167.05 471.02,161.53 465.55,158.78C460.08,156.03 451.53,152.23 446.55,150.33C441.57,148.42 433.27,145.77 428.11,144.43C422.95,143.08 413.27,141.27 406.61,140.39C397.42,139.17 389.44,138.91 373.50,139.30C358.29,139.66 349.46,140.38 341.48,141.87C335.41,143.01 325.82,145.32 320.16,147.00C314.51,148.68 305.07,151.94 299.19,154.25C293.31,156.56 283.77,160.86 278.00,163.81C272.23,166.76 262.45,172.52 256.29,176.61C250.12,180.70 240.22,188.03 234.29,192.89C228.35,197.76 219.90,205.30 215.50,209.65C211.10,214.01 203.43,222.28 198.45,228.03C193.47,233.79 187.35,241.20 184.84,244.50C182.34,247.80 176.72,255.91 172.35,262.52C167.99,269.12 162.32,278.80 159.74,284.02C157.17,289.23 153.71,297.66 152.06,302.75C150.41,307.84 148.55,314.93 147.93,318.50C147.30,322.08 146.96,328.71 147.16,333.25C147.43,339.42 148.13,342.75 149.94,346.44C151.27,349.15 155.42,354.60 159.17,358.54C162.92,362.48 169.92,368.52 174.74,371.96C179.56,375.39 185.97,379.45 189.00,380.99C192.03,382.52 197.43,384.67 201.01,385.78C204.58,386.88 212.01,388.48 217.51,389.34C223.00,390.20 233.00,391.41 239.71,392.04C246.43,392.68 252.51,392.99 253.21,392.75C253.92,392.50 249.71,390.00 243.85,387.19C236.60,383.70 231.62,380.53 228.22,377.22C225.48,374.55 222.48,370.89 221.55,369.09C220.61,367.29 220.12,365.55 220.45,365.22C220.77,364.89 226.77,366.05 233.77,367.78C240.77,369.52 250.36,371.44 255.08,372.04C259.79,372.65 265.42,373.00 267.58,372.82C271.46,372.50 271.55,372.40 276.20,363.00C278.79,357.77 284.48,348.77 288.86,343.00C293.24,337.23 301.63,327.32 307.51,321.00C313.39,314.68 318.94,308.40 319.85,307.05C321.23,304.99 321.58,300.64 322.00,280.05C322.42,259.66 322.78,254.98 324.17,252.45C325.09,250.78 331.04,242.69 337.40,234.47C343.77,226.26 350.34,216.96 352.02,213.80C354.25,209.63 355.34,205.82 356.03,199.79C356.56,195.23 356.99,189.16 356.99,186.31C357.00,183.45 356.55,180.84 356.00,180.50C355.45,180.16 351.52,180.83 347.27,182.00C343.01,183.17 335.86,185.85 331.36,187.95C326.86,190.06 319.99,193.85 316.08,196.38C312.16,198.91 304.96,204.14 300.06,208.01C295.15,211.88 290.06,216.33 288.73,217.90C286.46,220.61 286.29,221.72 285.67,238.13C285.15,252.11 284.35,258.77 281.62,272.26C278.42,288.01 277.86,289.65 272.36,299.63C269.14,305.47 263.40,313.90 259.62,318.37C255.83,322.84 249.32,329.99 245.14,334.25C240.08,339.42 236.79,342.00 235.27,342.00C233.32,342.00 233.00,341.48 233.00,338.32C233.00,336.29 233.89,332.80 234.98,330.57C236.07,328.33 240.63,322.45 245.11,317.50C249.59,312.55 253.99,307.40 254.88,306.05C256.20,304.05 256.56,300.01 256.84,284.48C257.11,269.19 256.88,264.65 255.68,261.78C254.77,259.60 252.09,256.66 248.82,254.24C245.87,252.06 241.44,249.20 238.98,247.89C234.91,245.72 233.17,245.48 220.02,245.32C210.40,245.20 205.42,244.76 205.17,244.02C204.97,243.40 205.97,241.14 207.40,238.98C208.82,236.82 211.46,234.29 213.25,233.35C215.21,232.32 219.69,231.47 224.54,231.21C228.96,230.97 235.16,231.31 238.30,231.96C241.45,232.61 247.10,234.68 250.85,236.56C254.96,238.62 260.10,242.38 263.76,246.00C269.84,252.02 269.84,252.02 270.48,245.26C270.83,241.54 271.75,234.00 272.53,228.50C273.30,223.00 274.23,217.04 274.59,215.25C275.15,212.50 274.96,212.00 273.38,212.02C272.34,212.02 267.90,212.99 263.50,214.16C259.10,215.33 254.15,216.34 252.50,216.40C250.14,216.48 249.43,216.04 249.19,214.31C248.97,212.80 250.36,210.60 253.69,207.19C256.98,203.81 260.30,201.60 264.22,200.16C267.37,199.00 274.41,197.14 279.88,196.02C289.01,194.16 290.62,193.46 299.66,187.40C305.07,183.77 313.32,178.89 318.00,176.54C322.68,174.20 330.10,171.11 334.50,169.68C338.90,168.25 346.07,166.16 350.44,165.04C354.80,163.92 359.16,163.00 360.12,163.00C361.08,163.00 362.15,162.09 362.51,160.97C362.86,159.86 364.14,158.30 365.34,157.51C366.54,156.73 372.16,155.64 377.83,155.11C384.33,154.50 392.83,154.48 400.82,155.07C407.79,155.58 417.10,156.70 421.50,157.56C425.90,158.43 433.55,160.48 438.50,162.13C443.45,163.77 452.45,167.52 458.50,170.45C464.55,173.38 474.93,179.36 481.56,183.75C488.20,188.13 496.97,194.59 501.06,198.10C505.15,201.61 512.23,208.05 516.78,212.41C521.34,216.77 528.76,224.80 533.28,230.26C537.80,235.72 544.57,244.75 548.32,250.34C552.07,255.93 558.22,266.80 561.99,274.50C565.76,282.20 570.20,292.55 571.87,297.50C573.54,302.45 576.72,313.48 578.94,322.00C581.31,331.08 583.66,343.30 584.61,351.50C585.67,360.62 586.02,368.81 585.62,375.00C585.29,380.23 584.73,386.75 584.37,389.50C583.73,394.50 583.73,394.50 586.41,392.04zM304.53,367.00C304.82,367.00 306.74,366.29 308.78,365.42C310.83,364.55 315.20,363.00 318.50,361.98C321.80,360.96 329.23,359.23 335.00,358.15C340.77,357.06 350.45,355.68 356.50,355.08C362.55,354.48 387.75,353.81 412.50,353.59C437.25,353.37 462.00,352.69 467.50,352.07C473.00,351.45 481.55,350.28 486.50,349.45C491.45,348.63 498.96,347.07 503.19,345.99C507.42,344.90 513.04,343.30 515.69,342.41C518.33,341.53 524.01,339.07 528.30,336.94C532.60,334.81 539.70,330.53 544.09,327.43C548.49,324.34 552.77,320.76 553.61,319.48C554.87,317.54 554.96,315.93 554.11,309.83C553.55,305.80 552.58,300.14 551.96,297.25C551.34,294.36 550.44,292.00 549.95,292.00C549.46,292.00 545.62,294.25 541.40,297.00C537.19,299.75 530.77,302.92 527.12,304.05C522.82,305.38 514.05,306.62 502.14,307.59C492.04,308.41 480.83,309.76 477.24,310.60C473.64,311.43 469.08,312.95 467.10,313.98C465.12,315.00 460.80,318.59 457.50,321.95C453.62,325.91 450.27,328.37 448.00,328.95C446.08,329.44 442.52,330.15 440.10,330.53C435.70,331.23 435.70,331.23 436.31,327.49C436.64,325.44 438.77,320.64 441.03,316.83C443.30,313.02 446.51,308.35 448.18,306.45C449.84,304.56 453.97,301.71 457.35,300.12C460.73,298.54 467.55,295.98 472.50,294.44C480.57,291.93 482.07,291.06 487.00,286.05C490.02,282.97 495.78,275.63 499.80,269.73C503.81,263.84 508.64,255.74 510.53,251.75C512.42,247.76 514.24,243.12 514.57,241.43C515.09,238.80 514.60,237.75 511.28,234.29C509.14,232.06 505.61,229.34 503.44,228.24C501.27,227.14 497.10,225.91 494.16,225.51C491.22,225.11 485.95,225.09 482.44,225.47C476.06,226.15 476.06,226.15 462.62,241.33C455.22,249.67 446.09,259.49 442.34,263.14C438.42,266.94 434.00,270.24 432.00,270.86C430.07,271.46 422.43,273.10 415.00,274.52C407.57,275.93 398.57,278.03 395.00,279.18C391.43,280.34 386.46,282.30 383.97,283.55C381.47,284.79 376.35,287.88 372.59,290.41C368.82,292.93 365.28,295.00 364.73,295.00C364.10,295.00 363.97,292.92 364.38,289.38C364.75,286.29 366.00,281.56 367.16,278.85C368.41,275.94 371.25,272.16 374.14,269.56C377.00,266.99 382.16,263.87 386.62,262.01C390.81,260.27 399.92,257.36 406.86,255.53C413.81,253.71 420.85,251.70 422.50,251.07C424.15,250.44 433.60,241.69 443.50,231.62C453.40,221.56 463.47,211.91 465.89,210.17C468.30,208.44 471.83,206.59 473.72,206.07C475.84,205.48 478.10,205.47 479.59,206.03C480.91,206.54 482.00,206.60 482.00,206.18C482.00,205.75 480.31,203.79 478.25,201.81C476.19,199.83 471.12,195.97 467.00,193.24C462.88,190.50 457.15,187.08 454.28,185.63C451.41,184.18 448.39,183.00 447.57,183.00C446.31,183.00 446.10,185.15 446.23,196.75C446.35,207.85 446.05,211.11 444.71,213.65C443.80,215.39 440.33,220.23 437.01,224.40C433.69,228.58 430.53,232.00 429.99,232.00C429.36,232.00 429.00,221.80 429.00,204.07C429.00,180.22 428.77,175.92 427.45,174.60C426.61,173.75 424.06,172.55 421.80,171.95C419.54,171.34 415.17,170.46 412.09,169.99C409.02,169.53 403.35,168.87 399.50,168.53C395.65,168.19 388.52,168.33 383.67,168.84C378.81,169.35 374.31,170.29 373.67,170.93C372.88,171.72 372.34,179.45 372.00,194.80C371.51,216.99 371.44,217.62 368.79,223.00C367.29,226.03 360.84,234.57 354.45,242.00C348.06,249.43 341.92,257.26 340.81,259.42C338.89,263.14 338.82,264.46 339.49,285.42C340.19,307.50 340.19,307.50 336.35,312.64C334.23,315.47 329.01,321.71 324.75,326.51C320.48,331.32 315.38,337.91 313.40,341.16C311.43,344.41 308.50,350.92 306.90,355.62C305.31,360.31 304.00,364.80 304.00,365.58C304.00,366.36 304.24,367.00 304.53,367.00zM206.25,350.99C205.29,350.99 201.35,348.94 197.50,346.44C193.65,343.94 185.73,339.43 179.89,336.43C174.06,333.43 168.58,330.19 167.72,329.24C166.86,328.28 165.85,326.26 165.47,324.75C164.79,322.03 164.83,322.00 169.76,322.00C172.50,322.00 178.73,322.71 183.62,323.57C188.50,324.44 193.56,325.22 194.86,325.32C197.01,325.48 197.51,324.59 200.49,315.24C202.29,309.60 206.02,301.05 208.78,296.24C211.55,291.43 216.14,283.12 218.99,277.76C221.84,272.40 224.59,267.75 225.11,267.43C225.62,267.12 226.71,268.45 227.52,270.40C228.54,272.84 229.00,277.57 228.99,285.72C228.99,292.20 228.53,299.14 227.98,301.14C227.42,303.15 224.07,309.09 220.52,314.35C216.98,319.61 213.20,325.64 212.13,327.74C211.06,329.84 209.69,334.22 209.09,337.47C208.49,340.71 208.00,345.08 208.00,347.18C208.00,350.15 207.61,351.00 206.25,350.99zM507.87,290.00C508.34,290.00 510.03,289.00 511.62,287.77C513.20,286.55 514.95,285.05 515.50,284.44C516.05,283.83 518.64,280.50 521.25,277.05C524.90,272.23 526.00,269.94 526.00,267.14C526.00,265.14 524.64,260.62 522.97,257.11C521.31,253.59 519.72,250.95 519.44,251.23C519.16,251.51 517.85,255.74 516.53,260.62C515.22,265.50 512.54,273.65 510.57,278.71C508.61,283.78 507.00,288.39 507.00,288.96C507.00,289.53 507.39,290.00 507.87,290.00z" />

</svg>