<?xml version="1.0" encoding="utf-8"?>
<!-- Svg Vector Icons : http://www.onlinewebfonts.com/icon -->
<!DOCTYPE svg PUBLIC "-//W3C//DTD SVG 1.1//EN" "http://www.w3.org/Graphics/SVG/1.1/DTD/svg11.dtd">
<svg version="1.1" xmlns="http://www.w3.org/2000/svg" xmlns:xlink="http://www.w3.org/1999/xlink" x="0px" y="0px" viewBox="0 0 256 256" enable-background="new 0 0 256 256" xml:space="preserve">
<metadata> Svg Vector Icons : http://www.onlinewebfonts.com/icon </metadata>
<g><g><path fill="#000000" d="M130,44c0,2.3,0,3.8,0,5.2c0,52.6-0.4,105.1,0.2,157.7c0.2,22.7-15.1,34.6-30.3,38c-8.9,2-17.7,1.6-25.8-3.2c-13-7.6-19.3-29.3-2.8-44c12.1-10.9,32.8-13.6,47.2-5.9c4.2,2.2,4.7,2,4.7-2.8c0-58.1,0-116.3,0-174.4c0-1.4,0-2.9,0-4.6c2.2,0,4.3,0,6.5,0c2.7,20.8,17.8,33.3,32.1,46.2c16.3,14.7,28.1,32,31.6,53.9c4.5,27.9-3.2,52.6-19.7,75c-0.2,0.3-0.7,0.6-0.9,0.9c-4.8-2.3-4.8-2.3-2.5-6.7c7.8-14,14-28.6,15.6-44.8c1.8-17.7-2.6-34-13.4-48c-6.1-7.9-13.7-14.9-20.7-22.1c-6.1-6.2-12.6-12.3-18.9-18.3C132.1,45.7,131.5,45.1,130,44L130,44z"/></g></g>
</svg>