<?xml version="1.0" standalone="no"?>
   <!DOCTYPE svg PUBLIC "-//W3C//DTD SVG 1.1//EN" 
   "http://www.w3.org/Graphics/SVG/1.1/DTD/svg11.dtd"><svg id="svg" version="1.1" width="702" height="705" xmlns="http://www.w3.org/2000/svg"><path d="M368.345 61.460 C 332.439 70.581,290.257 98.853,268.374 128.465 C 262.552 136.344,254.712 153.095,250.501 166.655 C 244.122 187.197,243.000 196.646,243.000 229.838 C 243.000 269.714,251.056 339.477,259.332 371.277 C 261.798 380.750,267.232 397.193,271.408 407.819 C 275.583 418.444,279.000 427.562,279.000 428.080 C 279.000 428.598,268.673 420.367,256.050 409.789 C 227.326 385.716,196.418 367.907,162.667 355.984 C 140.285 348.076,132.161 346.722,106.500 346.620 C 85.526 346.536,73.803 347.861,67.537 351.023 C 52.387 358.667,54.484 364.319,77.077 376.747 C 103.892 391.498,120.279 404.624,144.000 430.351 C 201.150 492.335,218.160 504.973,267.004 521.742 C 309.267 536.251,323.516 545.027,400.241 603.805 C 422.914 621.175,463.240 644.879,470.250 644.958 C 478.361 645.049,473.165 639.931,455.250 630.180 C 407.761 604.333,379.943 580.139,363.026 549.974 C 357.637 540.363,341.558 515.625,327.297 495.000 C 297.688 452.180,289.111 435.316,274.136 390.468 C 256.134 336.556,258.026 312.482,281.325 299.032 C 295.023 291.124,307.714 294.225,329.896 310.900 C 354.736 329.572,356.658 333.839,343.681 341.496 C 338.049 344.819,331.058 351.175,328.144 355.622 C 320.807 366.821,321.404 388.477,329.482 404.130 C 338.094 420.818,337.861 426.000,328.500 426.000 C 320.420 426.000,318.814 431.310,323.977 440.957 C 328.108 448.676,345.185 453.922,354.568 450.354 C 358.989 448.674,363.723 448.619,366.250 450.218 C 368.588 451.698,376.238 452.929,383.250 452.954 C 395.494 452.998,397.422 451.389,396.296 442.064 C 396.068 440.174,399.639 437.319,404.231 435.718 C 425.937 428.151,440.549 404.935,426.000 401.131 C 420.972 399.816,420.000 397.039,420.000 383.984 C 420.000 364.010,413.503 350.550,399.013 340.509 C 390.438 334.567,384.475 332.723,375.842 333.347 C 365.398 334.101,362.913 332.771,351.379 320.258 C 332.594 299.880,312.693 288.000,297.338 288.000 C 281.611 288.000,268.462 294.575,262.879 305.232 C 258.632 313.336,258.592 313.279,256.459 296.212 C 249.301 238.918,279.133 198.802,324.384 204.871 C 338.479 206.762,363.180 218.761,377.931 230.884 L 388.362 239.457 380.547 247.271 C 368.399 259.419,367.210 279.838,377.529 299.119 C 380.486 304.646,380.115 305.877,374.998 307.501 C 371.699 308.548,369.000 311.407,369.000 313.855 C 369.000 319.138,387.762 327.671,394.061 325.253 C 396.798 324.203,399.203 325.914,400.431 329.783 C 403.061 338.068,405.295 337.652,415.525 326.974 C 422.613 319.575,425.830 318.259,433.367 319.673 C 445.433 321.937,459.454 316.675,457.176 310.738 C 456.122 307.991,459.592 302.663,466.234 296.831 C 479.165 285.478,479.579 282.730,468.750 280.143 C 456.479 277.212,453.000 273.323,453.000 262.537 C 453.000 242.428,430.051 227.447,408.000 233.161 C 398.587 235.600,396.188 234.767,382.554 224.326 C 346.631 196.819,315.251 188.887,289.185 200.724 C 274.356 207.459,265.874 216.025,256.237 234.000 L 249.000 247.500 250.720 219.000 C 254.420 157.722,270.516 131.233,312.964 116.564 C 329.196 110.956,367.421 109.019,370.290 113.660 C 371.194 115.123,369.933 117.980,367.488 120.010 C 365.044 122.039,361.690 128.722,360.037 134.861 C 355.944 150.061,362.831 169.555,378.637 187.512 C 390.000 200.421,390.552 201.864,386.800 208.873 C 383.382 215.260,383.433 216.805,387.139 219.149 C 394.550 223.838,403.693 222.319,415.243 214.481 C 423.818 208.662,427.598 207.644,431.964 209.981 C 451.070 220.206,490.700 203.886,481.786 189.463 C 480.905 188.038,483.404 183.848,487.339 180.152 C 500.091 168.171,499.582 147.000,486.541 147.000 C 483.655 147.000,478.829 142.828,475.817 137.729 C 460.449 111.713,432.377 90.000,414.109 90.000 C 407.755 90.000,399.100 92.917,392.849 97.165 C 383.515 103.507,378.184 104.467,346.403 105.526 C 320.032 106.406,307.712 108.122,300.000 111.991 L 289.500 117.259 302.598 105.163 C 330.279 79.599,385.005 60.354,419.636 64.003 C 453.829 67.607,490.343 84.519,518.554 109.819 C 531.778 121.679,532.089 122.340,526.894 127.535 C 509.213 145.216,512.822 178.021,535.493 205.687 C 545.121 217.438,545.433 218.449,539.872 219.903 C 534.679 221.261,534.335 222.452,537.274 228.903 C 543.806 243.240,560.437 246.529,578.216 237.000 C 584.374 233.700,591.172 231.000,593.325 231.000 C 595.478 231.000,602.724 228.202,609.428 224.782 C 619.557 219.614,621.383 217.344,620.237 211.348 C 619.255 206.214,620.442 203.629,624.351 202.389 C 633.046 199.629,642.000 184.611,642.000 172.787 C 642.000 162.838,641.311 162.000,633.135 162.000 C 625.874 162.000,621.125 158.288,606.885 141.482 C 579.340 108.973,568.880 103.677,547.490 111.412 C 538.521 114.655,537.097 114.043,518.777 99.075 C 508.175 90.413,488.376 77.916,474.781 71.304 C 451.420 59.942,448.288 59.222,417.781 58.192 C 396.090 57.459,379.872 58.531,368.345 61.460 M434.020 104.475 C 442.312 108.913,463.579 132.549,469.389 143.786 C 472.083 148.995,477.570 154.506,481.583 156.032 C 487.614 158.325,488.445 159.992,486.375 165.653 C 484.999 169.419,480.222 174.525,475.761 177.000 C 468.035 181.286,467.294 181.092,460.171 172.904 C 456.058 168.176,451.933 165.067,451.004 165.996 C 448.675 168.325,461.330 188.280,467.483 191.979 C 472.092 194.750,472.026 195.362,466.677 199.498 C 458.556 205.776,441.484 205.111,428.216 198.000 C 413.952 190.355,408.498 190.263,415.304 197.784 C 420.338 203.346,420.190 203.748,411.418 208.284 C 399.074 214.667,396.596 214.236,398.174 205.980 C 399.148 200.884,396.036 194.940,386.815 184.286 C 363.349 157.173,360.566 136.630,378.333 121.680 C 389.807 112.026,400.366 109.292,409.721 113.555 C 413.725 115.379,417.000 115.638,417.000 114.130 C 417.000 112.622,412.140 109.631,406.199 107.483 L 395.398 103.577 403.760 100.159 C 412.081 96.758,422.331 98.220,434.020 104.475 M580.581 125.484 C 585.487 130.150,596.667 142.300,605.427 152.484 C 614.767 163.342,623.762 171.000,627.177 171.000 C 638.308 171.000,633.438 187.068,620.238 193.894 C 611.044 198.648,606.174 196.356,606.046 187.215 C 605.986 182.906,595.516 173.484,593.277 175.723 C 591.156 177.844,602.108 203.632,607.995 210.374 C 611.791 214.723,610.935 215.775,600.064 220.124 C 593.362 222.806,585.371 225.000,582.307 225.000 C 579.242 225.000,575.054 227.025,573.000 229.500 C 570.946 231.975,565.546 234.000,561.000 234.000 C 556.454 234.000,551.054 231.975,549.000 229.500 C 545.886 225.747,546.293 225.000,551.456 225.000 C 562.795 225.000,561.673 218.842,547.590 203.786 C 523.366 177.889,518.052 152.717,533.047 134.897 C 540.500 126.039,542.104 125.464,554.797 127.094 L 568.500 128.854 561.418 122.927 L 554.335 117.000 562.999 117.000 C 568.406 117.000,575.016 120.189,580.581 125.484 M393.100 167.250 C 393.271 171.104,405.059 183.941,406.815 182.185 C 408.948 180.052,399.173 165.000,395.655 165.000 C 394.195 165.000,393.045 166.013,393.100 167.250 M436.518 246.755 C 441.895 251.379,444.923 257.626,446.122 266.564 C 447.491 276.771,449.775 280.776,456.592 284.921 L 465.311 290.224 454.876 296.381 C 446.856 301.113,444.818 303.980,446.070 308.769 C 448.795 319.190,433.463 316.972,422.911 305.420 C 413.575 295.197,408.319 295.385,413.862 305.743 C 416.262 310.226,416.301 313.701,414.000 318.000 C 410.640 324.279,405.000 326.159,405.000 321.000 C 405.000 319.350,399.600 318.000,393.000 318.000 C 386.400 318.000,381.000 316.650,381.000 315.000 C 381.000 313.350,383.025 312.000,385.500 312.000 C 391.219 312.000,391.161 309.249,385.190 297.281 C 378.772 284.415,376.542 266.023,380.561 259.105 C 383.657 253.777,383.822 253.809,383.909 259.750 C 384.081 271.583,388.287 270.257,391.391 257.391 C 394.980 242.512,403.235 239.188,415.934 247.508 C 424.914 253.393,430.127 250.437,421.672 244.255 C 415.981 240.093,415.994 240.000,422.259 240.000 C 425.783 240.000,432.199 243.040,436.518 246.755 M399.956 352.156 C 410.355 362.555,414.000 373.158,414.000 393.008 C 414.000 399.355,415.963 405.894,418.500 408.000 C 425.054 413.440,424.160 415.794,412.896 422.755 C 400.930 430.150,388.361 430.873,385.842 424.310 C 384.852 421.730,382.693 420.454,381.044 421.473 C 379.194 422.616,380.359 427.864,384.083 435.163 L 390.122 447.000 383.228 447.000 C 379.437 447.000,373.358 444.915,369.720 442.366 C 364.762 438.894,361.638 438.518,357.249 440.866 C 343.465 448.243,323.580 440.453,336.153 432.601 C 343.660 427.913,343.583 416.279,335.934 399.422 C 327.739 381.362,328.298 368.483,337.767 357.230 C 346.621 346.708,352.312 345.141,349.500 354.000 C 346.703 362.813,353.604 361.433,357.000 352.500 C 361.955 339.468,374.658 344.718,384.464 363.850 C 388.030 370.808,391.523 374.809,392.226 372.743 C 392.929 370.676,390.111 362.914,385.964 355.493 C 378.924 342.897,378.801 342.000,384.111 342.000 C 387.240 342.000,394.370 346.570,399.956 352.156 M144.000 360.500 C 164.643 365.268,215.204 390.701,237.000 407.281 C 258.269 423.460,297.000 463.027,297.000 468.576 C 297.000 470.482,286.538 461.933,273.750 449.579 C 220.357 397.998,158.194 367.160,94.862 360.837 C 75.954 358.949,74.706 358.462,84.000 356.598 C 96.162 354.158,124.532 356.003,144.000 360.500 M116.797 372.133 C 167.015 380.798,218.680 407.661,262.500 447.892 L 277.500 461.663 262.500 457.096 C 245.430 451.899,210.726 453.049,197.110 459.262 C 188.822 463.044,188.276 462.633,152.110 425.331 C 127.918 400.379,109.649 384.324,98.250 377.999 C 79.138 367.394,76.909 364.710,89.250 367.163 C 93.788 368.065,106.184 370.301,116.797 372.133 M271.500 468.081 C 284.445 472.884,293.569 479.033,303.987 489.974 C 320.021 506.811,357.263 555.737,355.437 557.563 C 354.798 558.202,345.777 552.678,335.388 545.290 C 310.834 527.826,304.115 524.512,270.000 513.041 C 254.325 507.770,236.775 500.654,231.000 497.227 C 213.372 486.765,194.418 470.377,197.031 467.854 C 207.527 457.719,243.872 457.829,271.500 468.081 " stroke="none" fill="black" fill-rule="evenodd"/></svg>