<?xml version="1.0" encoding="iso-8859-1"?>
<!-- Uploaded to: SVG Repo, www.svgrepo.com, Generator: SVG Repo Mixer Tools -->
<!DOCTYPE svg PUBLIC "-//W3C//DTD SVG 1.1//EN" "http://www.w3.org/Graphics/SVG/1.1/DTD/svg11.dtd">
<svg height="800px" width="800px" version="1.1" id="Capa_1" xmlns="http://www.w3.org/2000/svg" xmlns:xlink="http://www.w3.org/1999/xlink" 
	 viewBox="0 0 297.5 297.5" xml:space="preserve">
<g>
	<g id="XMLID_26_">
		<g>
			<path style="fill:#ACBFC7;" d="M228.95,179.95l-68.74-8.05v-3.25h66.09C227.26,172.34,228.15,176.11,228.95,179.95z"/>
			<path style="fill:#ACBFC7;" d="M230.68,200.36c0.02,0,0.04,0,0.07,0c-0.67,1.81-1.75,3.46-3.22,4.84
				c-3.06,2.87-7.66,3.37-11.85,3.14c-16.34-0.89-55.47-4.61-55.47-4.61v-11.62L230.68,200.36z"/>
			<path style="fill:#ACBFC7;" d="M137.3,192.11v11.62c0,0-41.89,3.88-56.05,4.61c-4.18,0.22-8.21-0.27-11.27-3.14
				c-1.47-1.38-2.56-3.03-3.22-4.84c0.02,0,0.05,0,0.07,0L137.3,192.11z"/>
			<path style="fill:#ACBFC7;" d="M137.3,168.65v3.25l-68.74,8.05c0.79-3.84,1.68-7.61,2.65-11.3H137.3z"/>
			<path style="fill:#ACBFC7;" d="M137.3,141.22v7.36H77.34c0.88-2.52,1.78-4.97,2.69-7.36H137.3z"/>
			<path style="fill:#ACBFC7;" d="M220.17,148.58h-59.96v-7.36h57.26C218.38,143.61,219.28,146.06,220.17,148.58z"/>
			<path style="fill:#ACBFC7;" d="M208.91,121.16h-48.7V104.1h25.42c9.1,0,17.56,5.28,21.55,13.44
				C207.75,118.7,208.33,119.91,208.91,121.16z"/>
			<path style="fill:#ACBFC7;" d="M137.3,104.1v17.06H88.59c0.59-1.25,1.17-2.46,1.74-3.62c3.99-8.16,12.44-13.44,21.54-13.44H137.3
				z"/>
			<path style="fill:#ACBFC7;" d="M277.19,20.32v256.86H20.32V20.32H277.19z M271.67,264.64v-33.11c0-3.88-3.15-7.02-7.03-7.02
				c-3.88,0-7.02,3.14-7.02,7.02v26.09h-26.09c-3.88,0-7.02,3.14-7.02,7.02c0,3.88,3.14,7.02,7.02,7.02h33.11
				C268.52,271.66,271.67,268.52,271.67,264.64z M271.67,65.97V32.86c0-3.88-3.15-7.02-7.03-7.02h-33.11
				c-3.88,0-7.02,3.14-7.02,7.02s3.14,7.02,7.02,7.02h26.09v26.09c0,3.88,3.14,7.02,7.02,7.02
				C268.52,72.99,271.67,69.85,271.67,65.97z M241.26,219.83c7.81-7.34,11.47-17.62,10.04-28.21
				c-3.18-23.53-10.56-46.71-17.71-64.17c-2.63-6.44-5.91-13.66-8.38-18.72c-7.33-15-22.87-24.7-39.58-24.7h-26.84V56.94
				c0-5.54-4.5-10.03-10.04-10.03s-10.03,4.49-10.03,10.03v27.09h-26.85c-16.71,0-32.24,9.7-39.57,24.7
				c-2.47,5.06-6.34,12.28-8.97,18.72c-7.15,17.46-13.94,40.64-17.12,64.17c-1.44,10.59,2.22,20.87,10.03,28.21
				c6.15,5.77,14.25,8.91,22.53,8.91c1.93,0,3.87-0.17,5.8-0.52l54.15-4.47v7.78c0,5.54,4.49,10.03,10.03,10.03
				s10.04-4.49,10.04-10.03v-7.78l54.15,4.47c1.92,0.35,3.86,0.52,5.79,0.52C227.02,228.74,235.12,225.6,241.26,219.83z M73,32.86
				c0-3.88-3.15-7.02-7.03-7.02H32.86c-3.88,0-7.02,3.14-7.02,7.02v33.11c0,3.88,3.14,7.02,7.02,7.02s7.03-3.14,7.03-7.02V39.88
				h26.08C69.85,39.88,73,36.74,73,32.86z M73,264.64c0-3.88-3.15-7.02-7.03-7.02H39.89v-26.09c0-3.88-3.15-7.02-7.03-7.02
				s-7.02,3.14-7.02,7.02v33.11c0,3.88,3.14,7.02,7.02,7.02h33.11C69.85,271.66,73,268.52,73,264.64z"/>
			<path d="M297.25,10.28v276.94c0,5.54-4.49,10.03-10.03,10.03H10.29c-5.54,0-10.04-4.49-10.04-10.03V10.28
				c0-5.54,4.5-10.03,10.04-10.03h276.93C292.76,0.25,297.25,4.74,297.25,10.28z M277.19,277.18V20.32H20.32v256.86H277.19z"/>
			<path d="M271.67,231.53v33.11c0,3.88-3.15,7.02-7.03,7.02h-33.11c-3.88,0-7.02-3.14-7.02-7.02c0-3.88,3.14-7.02,7.02-7.02h26.09
				v-26.09c0-3.88,3.14-7.02,7.02-7.02C268.52,224.51,271.67,227.65,271.67,231.53z"/>
			<path d="M271.67,32.86v33.11c0,3.88-3.15,7.02-7.03,7.02c-3.88,0-7.02-3.14-7.02-7.02V39.88h-26.09c-3.88,0-7.02-3.14-7.02-7.02
				s3.14-7.02,7.02-7.02h33.11C268.52,25.84,271.67,28.98,271.67,32.86z"/>
			<path d="M251.3,191.62c1.43,10.59-2.23,20.87-10.04,28.21c-6.14,5.77-14.24,8.91-22.53,8.91c-1.93,0-3.87-0.17-5.79-0.52
				l-54.15-4.47v7.78c0,5.54-4.5,10.03-10.04,10.03s-10.03-4.49-10.03-10.03v-7.78l-54.15,4.47c-1.93,0.35-3.87,0.52-5.8,0.52
				c-8.28,0-16.38-3.14-22.53-8.91c-7.81-7.34-11.47-17.62-10.03-28.21c3.18-23.53,9.97-46.71,17.12-64.17
				c2.63-6.44,6.5-13.66,8.97-18.72c7.33-15,22.86-24.7,39.57-24.7h26.85V56.94c0-5.54,4.49-10.03,10.03-10.03
				s10.04,4.49,10.04,10.03v27.09h26.84c16.71,0,32.25,9.7,39.58,24.7c2.47,5.06,5.75,12.28,8.38,18.72
				C240.74,144.91,248.12,168.09,251.3,191.62z M230.75,200.36c-0.03,0-0.05,0-0.07,0l-70.47-8.25v11.62c0,0,39.13,3.72,55.47,4.61
				c4.19,0.23,8.79-0.27,11.85-3.14C229,203.82,230.08,202.17,230.75,200.36z M160.21,171.9l68.74,8.05
				c-0.8-3.84-1.69-7.61-2.65-11.3h-66.09V171.9z M160.21,148.58h59.96c-0.89-2.52-1.79-4.97-2.7-7.36h-57.26V148.58z
				 M160.21,121.16h48.7c-0.58-1.25-1.16-2.46-1.73-3.62c-3.99-8.16-12.45-13.44-21.55-13.44h-25.42V121.16z M137.3,203.73v-11.62
				l-70.47,8.25c-0.02,0-0.05,0-0.07,0c0.66,1.81,1.75,3.46,3.22,4.84c3.06,2.87,7.09,3.36,11.27,3.14
				C95.41,207.61,137.3,203.73,137.3,203.73z M137.3,171.9v-3.25H71.21c-0.97,3.69-1.86,7.46-2.65,11.3L137.3,171.9z M137.3,148.58
				v-7.36H80.03c-0.91,2.39-1.81,4.84-2.69,7.36H137.3z M137.3,121.16V104.1h-25.43c-9.1,0-17.55,5.28-21.54,13.44
				c-0.57,1.16-1.15,2.37-1.74,3.62H137.3z"/>
			<path d="M65.97,25.84c3.88,0,7.03,3.14,7.03,7.02s-3.15,7.02-7.03,7.02H39.89v26.09c0,3.88-3.15,7.02-7.03,7.02
				s-7.02-3.14-7.02-7.02V32.86c0-3.88,3.14-7.02,7.02-7.02H65.97z"/>
			<path d="M65.97,257.62c3.88,0,7.03,3.14,7.03,7.02c0,3.88-3.15,7.02-7.03,7.02H32.86c-3.88,0-7.02-3.14-7.02-7.02v-33.11
				c0-3.88,3.14-7.02,7.02-7.02s7.03,3.14,7.03,7.02v26.09H65.97z"/>
		</g>
		<g>
		</g>
	</g>
</g>
</svg>